<svg xmlns:rdf="http://www.w3.org/1999/02/22-rdf-syntax-ns#" xmlns="http://www.w3.org/2000/svg" xmlns:osb="http://www.openswatchbook.org/uri/2009/osb" xmlns:cc="http://creativecommons.org/ns#" xmlns:dc="http://purl.org/dc/elements/1.1/" enable-background="new 0 0 100 100" xml:space="preserve" height="100px" viewBox="0 0 100 100" width="100px" version="1.1" y="0px" x="0px"><metadata><rdf:RDF><cc:Work rdf:about=""><dc:format>image/svg+xml</dc:format><dc:type rdf:resource="http://purl.org/dc/dcmitype/StillImage"/><dc:title/></cc:Work></rdf:RDF></metadata><defs/>
<path d="m60.6476,100.08c-0.698456-0.002-1.31494-0.0493-1.36997-0.104886-0.1584-0.15992,0.696431-1.02209,1.38348-1.39537,0.55124-0.29949,0.770879-0.344236,1.83865-0.374571,0.666948-0.01895,1.50105,0.0051,1.85359,0.0536l0.640962,0.08806,0.153951-1.65487c0.08468-0.91018,0.61647-7.31025,1.18176-14.2224,0.56529-6.91212,1.05298-12.8044,1.08376-13.0941l0.05595-0.526592-3.27563,0.09379c-1.8016,0.05163-3.77333,0.143347-4.38163,0.203823l-1.106,0.109984-3.12689,6.81466-3.12689,6.81466,0.304402,4.02622c0.167419,2.21442,0.389242,5.93681,0.492935,8.27199l0.188532,4.24578-3.50954,0.01575c-1.93025,0.0086-3.5556-0.03076-3.61188-0.0876-0.162221-0.163766,0.692978-1.02449,1.38141-1.39032,0.865952-0.460165,2.09347-0.549863,3.63162-0.265371,0.638148,0.118038,1.18203,0.18997,1.20863,0.159863,0.05216-0.05903-0.250495-4.67785-0.714478-10.9034l-0.289391-3.88294,1.97962-4.3181c3.17678-6.92943,4.24992-9.42874,4.08514-9.51416-0.07971-0.04129-0.718591-0.129001-1.41973-0.194858-0.701142-0.06585-1.54336-0.146943-1.8716-0.180215l-0.596795-0.06046,3.72156-7.08531c3.63324-6.91717,5.6887-10.936,6.26325-12.2459l0.284803-0.649306-1.78817-3.44615c-1.96549-3.78789-2.70569-5.0282-3.10607-5.20463-0.507584-0.223685-9.48394-2.94091-10.4822-3.17305-1.02733-0.23891-1.37144-0.216751-1.77087,0.114048-0.221689,0.183594-0.221814,0.365941-0.0067,9.91879,0.120505,5.35247,0.3125,12.0997,0.426658,14.9938,0.194113,4.92142,0.222004,5.27823,0.431157,5.51138,0.220139,0.245391,0.21895,0.251733-0.07623,0.406013-0.431121,0.22533-0.840766,0.07149-2.72562-1.02365-0.891002-0.517703-2.38656-1.37697-3.32348-1.9095-7.006-3.9825-13.8898-10.0238-18.1978-15.9709-1.9602-2.7061-3.7999-6.0708-4.3904-8.03-0.6072-2.0148-0.8382-6.4675-0.4834-9.3215l0.05503-0.442685-3.25451-0.794217c-1.89842-0.463282-3.49347-0.787419-3.828-0.7779-0.511159,0.01454-0.587924,0.05305-0.706248,0.354037-0.07302,0.185742-0.154697,0.604975-0.181517,0.931635-0.02938,0.357609-0.106613,0.595567-0.194162,0.598059-0.148829,0.0042-2.13254-2.04385-2.79136-2.88194l-0.366198-0.465845,0.545015-0.206134c0.734538-0.277816,2.83435-0.899444,3.05995-0.905862,0.145783-0.0042,0.18558,0.149824,0.203745,0.788176,0.01999,0.702646,0.0569,0.820587,0.32308,1.03171,0.44739,0.354894,2.05162,0.65929,4.58547,0.870076,1.24256,0.103365,2.42106,0.206424,2.61889,0.229016,0.341854,0.03907,0.371824,0.006,0.603984-0.665427,0.456433-1.32011,1.85745-4.37413,2.61771-5.70626,3.2591-5.7107,8.4617-11.5673,15.0022-16.8882,3.2744-2.66387,8.181-6.1779,9.0558-6.48572,0.7318-0.257493,1.205,0.197607,0.7706,0.741184-0.3788,0.47404-0.3977,3.71816-0.1566,26.8807l0.04132,3.9697,0.559989,0.05979c1.0255,0.109487,6.38802,0.386057,7.0952,0.365935,0.410067-0.01167,0.695262-0.07318,0.693088-0.14955-0.0021-0.07135-0.226426-0.645803-0.498652-1.27657-0.272228-0.630767-0.496387-1.19708-0.498133-1.25846-0.0033-0.116639,1.60431-0.349967,1.86589-0.270809,0.08272,0.02506,1.87936,0.03139,3.99256,0.01417l3.8422-0.03133-0.0285-1.00155c-0.03335-1.17192-0.07065-1.22319-1.58927-2.18346-3.65211-2.30938-5.04852-6.74462-3.44786-10.951,1.08712-2.85684,3.30675-4.60599,5.93398-4.67622,2.38926-0.06389,4.63136,1.39007,5.84741,3.79187,0.732221,1.4462,0.939932,2.46843,0.922015,4.53756-0.02366,2.7322-0.425991,3.84275-2.05745,5.67913-0.833804,0.938535-1.21946,1.26314-2.17695,1.83231-1.38597,0.823875-1.5497,1.04972-1.43343,1.97719,0.04616,0.368386,0.114191,0.718787,0.151136,0.778665,0.03695,0.05988,0.913803,0.122151,1.94859,0.13836,5.37942,0.08428,7.26012,0.175423,7.26514,0.352097,0.0014,0.0483-0.521002,1.0991-1.16084,2.33518-0.639828,1.23608-1.35257,2.64418-1.58387,3.1291l-0.420544,0.881686,1.03755,4.07368c0.57066,2.24052,1.03935,4.13661,1.04154,4.21352,0.0069,0.241588-1.10062,0.06951-3.09877-0.481483-1.03744-0.286077-2.1078-0.524677-2.37858-0.530231l-0.492312-0.01007-0.841904,1.44455c-0.86147,1.47812-2.1176,3.9911-2.23105,4.46341-0.07814,0.325256,1.31733,3.07507,5.89418,11.6147,3.4002,6.3442,4.28834,8.0198,4.26533,8.04705-0.0074,0.0088-1.32099,0.08779-2.91916,0.175714-3.36377,0.185054-3.40224,0.198842-3.72533,1.33512-0.215341,0.757335-0.248866,1.15816-1.05293,12.5898-0.781436,11.1099-0.944216,13.8768-0.92264,15.6831l0.01732,1.4505-2.195,0.0366c-1.20725,0.0202-2.76647,0.0349-3.46492,0.0329zm-13.8717-36.2323c-0.0083-3.15938-0.294877-20.8072-0.395925-24.3858l-0.06361-2.2526-0.317608,0.0085c-0.683375,0.01825-1.55037-0.874028-1.3995-1.44064,0.107894-0.405252,0.816699-1.00624,1.30123-1.1033l0.456709-0.09147-0.02589-0.909949c-0.0247-0.868078-0.03817-0.909594-0.292383-0.90236-0.353469,0.01006-7.96456-0.480004-16.6387-1.07133-8.42044-0.574031-7.87503-0.544241-7.87178-0.42998,0.0088,0.308539,1.40453,0.747321,5.57074,1.75128l2.12583,0.512271,0.427753-0.524658c0.235266-0.288563,0.484331-0.526274,0.553464-0.528241,0.225713-0.0064,0.776547,0.236968,0.870065,0.384444,0.134471,0.212046,0.15597,1.67593,0.03249,2.21342-0.13466,0.586238-0.387791,0.750983-0.932558,0.606931-0.462618-0.122325-0.677711-0.530582-0.700443-1.32945l-0.01296-0.455268-4.80064-1.15602-4.80063-1.15603-0.117876,0.689166c-0.494964,2.89392-0.205802,6.70304,0.698492,9.20104,0.653769,1.80597,2.10315,4.49845,3.66148,6.80189,3.27828,4.84576,9.1183,10.3593,15.2025,14.3527,3.24148,2.12754,6.76431,4.10753,7.28199,4.0928,0.175669-0.005,0.194525-0.294056,0.187708-2.8774zm25.8477-21.2213c-0.0826-1.10658-1.335-4.89244-1.61578-4.88445-0.330535,0.0094-2.54377,3.82814-2.45739,4.24,0.07934,0.378333,2.82798,1.31736,3.65416,1.24839l0.461233-0.03849-0.04222-0.565433zm-14.1945-3.9398c-0.1501-0.4655-1.5185-3.1393-2.1747-4.2493l-0.6213-1.0509-0.9868-0.0555c-0.5428-0.0305-2.4447-0.1486-4.2266-0.2625-1.7819-0.114-3.3838-0.2031-3.5598-0.1981l-0.319976,0.0091,0.02634,0.925724c0.01449,0.509146,0.06843,0.924522,0.119864,0.923058,0.05146-0.0014,0.367379,0.233259,0.702094,0.521602,0.334713,0.288343,0.992952,0.682003,1.46275,0.874812,1.17898,0.483845,9.02867,2.807,9.57233,2.83298,0.05201,0.0026,0.05465-0.119416,0.0058-0.270893zm-12.1968-8.4852c-0.0928-3.2427-0.3275-19.7516-0.3462-24.3477-0.0103-2.54276-0.0383-4.64302-0.0623-4.66725-0.0544-0.05484-3.9264,2.55527-5.4556,3.67759-3.899,2.86149-7.6528,6.3084-10.9873,10.0887-3.70223,4.19731-6.17391,7.79752-7.79112,11.3484-0.676567,1.48554-1.46443,3.6885-1.3569,3.79407,0.06318,0.06202,24.4758,1.76286,25.7877,1.79664,0.25792,0.0067,0.259812-0.0086,0.211669-1.69045z" fill-rule="nonzero" fill="#000"/></svg>