<svg xmlns="http://www.w3.org/2000/svg" xmlns:xlink="http://www.w3.org/1999/xlink" version="1.1" x="0px" y="0px" width="100px" height="100px" viewBox="0 0 100 100" enable-background="new 0 0 100 100" xml:space="preserve">
<g id="Captions">
</g>
<g id="Your_Icon">
	<path fill="#000000" d="M49.199,0.375L38.191,11.636c-0.486,0.496-0.879,0.336-0.879-0.358V6.335c0-0.695-0.563-1.258-1.258-1.258   H23.571c-0.695,0-1.258,0.563-1.258,1.258v19.423c0,0.695-0.399,1.656-0.891,2.147L0.521,48.742   c-0.491,0.49-0.328,0.888,0.367,0.888h9.973c0.695,0,1.667-0.387,2.172-0.865l36.054-34.093c0.505-0.477,1.323-0.477,1.828,0   L86.97,48.766c0.505,0.478,1.477,0.865,2.171,0.865h9.971c0.695,0,0.858-0.398,0.367-0.888L50.969,0.365   C50.478-0.125,49.686-0.121,49.199,0.375z"/>
	<path fill="#000000" d="M14.239,55.107v43.635c0,0.695,0.562,1.258,1.258,1.258h24.729c0.695,0,1.258-0.562,1.258-1.258v-24.9   c0-0.695,0.562-1.258,1.258-1.258h14.518c0.695,0,1.258,0.562,1.258,1.258v24.9c0,0.695,0.562,1.258,1.258,1.258h24.729   c0.695,0,1.258-0.562,1.258-1.258V55.107c0-0.695-0.409-1.645-0.914-2.123L50.914,20.851c-0.505-0.478-1.323-0.478-1.828,0   L15.153,52.984C14.648,53.463,14.239,54.412,14.239,55.107z M58.345,59.509c0,4.644-3.699,8.343-8.344,8.343   c-4.646,0-8.346-3.699-8.346-8.343c0-4.647,3.699-8.347,8.346-8.347C54.646,51.162,58.345,54.861,58.345,59.509z"/>
</g>
</svg>