<svg xmlns="http://www.w3.org/2000/svg" xmlns:xlink="http://www.w3.org/1999/xlink" version="1.1" id="Layer_1" x="0px" y="0px" width="100px" height="90.782px" viewBox="0 0 100 90.782" enable-background="new 0 0 100 90.782" xml:space="preserve">
<path fill="#000000" d="M91.407,8.458C79.945-2.863,61.404-2.813,50,8.568C38.597-2.813,20.057-2.863,8.592,8.458  C-2.873,19.778-3.143,38.022,9.467,50.542C23.542,64.508,46.061,86.868,50,90.782c3.943-3.914,26.459-26.273,40.533-40.24  C103.143,38.022,102.873,19.778,91.407,8.458z M53.605,13.9c2.258,0.188,3.936,2.144,3.764,4.396  c-0.188,2.253-2.145,3.931-4.4,3.744c-2.253-0.169-3.93-2.143-3.743-4.381C49.395,15.408,51.368,13.729,53.605,13.9z M39.355,52.625  l5.25-7.876l1.282-6.405l0,0l0.939-9.389c-0.61,0.424-1.25,0.888-1.879,1.375l-1.238,6.19c-0.198,0.991-1.067,1.676-2.041,1.676  c-0.136,0-0.273-0.014-0.411-0.042c-1.128-0.225-1.86-1.323-1.634-2.451l1.389-6.944c0.095-0.481,0.358-0.912,0.741-1.219  c2.636-2.109,6.207-4.623,8.246-4.623c1.535,0,3.642,0,5.64,1.999c1.074,1.075,3.168,4.877,4.18,6.771l3.5,1.413  c1.066,0.432,1.582,1.646,1.152,2.712c-0.434,1.066-1.646,1.582-2.712,1.152l-4.206-1.698c-0.457-0.186-0.836-0.527-1.064-0.964  c-0.502-0.957-1.062-1.984-1.604-2.936l-1.126,6.041l5.354,6.691c0.297,0.371,0.492,0.812,0.57,1.279l1.39,8.333  c0.252,1.514-0.771,2.943-2.284,3.197c-0.152,0.024-0.307,0.037-0.458,0.037c-1.335,0-2.511-0.964-2.737-2.322l-1.27-7.619  L50.721,42.5l-0.775,3.877c-0.07,0.354-0.211,0.693-0.412,0.996l-5.556,8.332c-0.535,0.803-1.416,1.237-2.314,1.237  c-0.53,0-1.065-0.151-1.538-0.467C38.85,55.625,38.504,53.901,39.355,52.625z M72.223,63.889H27.778v-5.557h44.445V63.889z"/>
</svg>